ModelForces
version=1
nRows=5
nColumns=119
inDegrees=no

This file contains the forces exerted on a model during a simulation.

A force is a generalized force, meaning that it can be either a force (N) or a torque (Nm).

Units are S.I. units (second, meters, Newtons, ...)
Angles are in degrees.

endheader
time	semimem_r	semiten_r	bifemlh_r	bifemsh_r	sar_r	grac_r	rect_fem_r	vas_med_r	vas_int_r	vas_lat_r	med_gas_r	lat_gas_r	femur_lat_meniscii_l.femur_lat_l.force.X	femur_lat_meniscii_l.femur_lat_l.force.Y	femur_lat_meniscii_l.femur_lat_l.force.Z	femur_lat_meniscii_l.femur_lat_l.torque.X	femur_lat_meniscii_l.femur_lat_l.torque.Y	femur_lat_meniscii_l.femur_lat_l.torque.Z	femur_lat_meniscii_l.meniscus_lat_l.force.X	femur_lat_meniscii_l.meniscus_lat_l.force.Y	femur_lat_meniscii_l.meniscus_lat_l.force.Z	femur_lat_meniscii_l.meniscus_lat_l.torque.X	femur_lat_meniscii_l.meniscus_lat_l.torque.Y	femur_lat_meniscii_l.meniscus_lat_l.torque.Z	femur_med_meniscii_l.femur_med_l.force.X	femur_med_meniscii_l.femur_med_l.force.Y	femur_med_meniscii_l.femur_med_l.force.Z	femur_med_meniscii_l.femur_med_l.torque.X	femur_med_meniscii_l.femur_med_l.torque.Y	femur_med_meniscii_l.femur_med_l.torque.Z	femur_med_meniscii_l.meniscus_med_l.force.X	femur_med_meniscii_l.meniscus_med_l.force.Y	femur_med_meniscii_l.meniscus_med_l.force.Z	femur_med_meniscii_l.meniscus_med_l.torque.X	femur_med_meniscii_l.meniscus_med_l.torque.Y	femur_med_meniscii_l.meniscus_med_l.torque.Z	femur_lat_meniscii_r.femur_lat_r.force.X	femur_lat_meniscii_r.femur_lat_r.force.Y	femur_lat_meniscii_r.femur_lat_r.force.Z	femur_lat_meniscii_r.femur_lat_r.torque.X	femur_lat_meniscii_r.femur_lat_r.torque.Y	femur_lat_meniscii_r.femur_lat_r.torque.Z	femur_lat_meniscii_r.meniscus_lat_r.force.X	femur_lat_meniscii_r.meniscus_lat_r.force.Y	femur_lat_meniscii_r.meniscus_lat_r.force.Z	femur_lat_meniscii_r.meniscus_lat_r.torque.X	femur_lat_meniscii_r.meniscus_lat_r.torque.Y	femur_lat_meniscii_r.meniscus_lat_r.torque.Z	femur_med_meniscii_r.femur_med_r.force.X	femur_med_meniscii_r.femur_med_r.force.Y	femur_med_meniscii_r.femur_med_r.force.Z	femur_med_meniscii_r.femur_med_r.torque.X	femur_med_meniscii_r.femur_med_r.torque.Y	femur_med_meniscii_r.femur_med_r.torque.Z	femur_med_meniscii_r.meniscus_med_r.force.X	femur_med_meniscii_r.meniscus_med_r.force.Y	femur_med_meniscii_r.meniscus_med_r.force.Z	femur_med_meniscii_r.meniscus_med_r.torque.X	femur_med_meniscii_r.meniscus_med_r.torque.Y	femur_med_meniscii_r.meniscus_med_r.torque.Z	femur_med_tibia_l.tibia_upper_l.force.X	femur_med_tibia_l.tibia_upper_l.force.Y	femur_med_tibia_l.tibia_upper_l.force.Z	femur_med_tibia_l.tibia_upper_l.torque.X	femur_med_tibia_l.tibia_upper_l.torque.Y	femur_med_tibia_l.tibia_upper_l.torque.Z	femur_med_tibia_l.femur_med_l.force.X	femur_med_tibia_l.femur_med_l.force.Y	femur_med_tibia_l.femur_med_l.force.Z	femur_med_tibia_l.femur_med_l.torque.X	femur_med_tibia_l.femur_med_l.torque.Y	femur_med_tibia_l.femur_med_l.torque.Z	femur_lat_tibia_l.tibia_upper_l.force.X	femur_lat_tibia_l.tibia_upper_l.force.Y	femur_lat_tibia_l.tibia_upper_l.force.Z	femur_lat_tibia_l.tibia_upper_l.torque.X	femur_lat_tibia_l.tibia_upper_l.torque.Y	femur_lat_tibia_l.tibia_upper_l.torque.Z	femur_lat_tibia_l.femur_lat_l.force.X	femur_lat_tibia_l.femur_lat_l.force.Y	femur_lat_tibia_l.femur_lat_l.force.Z	femur_lat_tibia_l.femur_lat_l.torque.X	femur_lat_tibia_l.femur_lat_l.torque.Y	femur_lat_tibia_l.femur_lat_l.torque.Z	femur_med_tibia_r.tibia_upper_r.force.X	femur_med_tibia_r.tibia_upper_r.force.Y	femur_med_tibia_r.tibia_upper_r.force.Z	femur_med_tibia_r.tibia_upper_r.torque.X	femur_med_tibia_r.tibia_upper_r.torque.Y	femur_med_tibia_r.tibia_upper_r.torque.Z	femur_med_tibia_r.femur_med_r.force.X	femur_med_tibia_r.femur_med_r.force.Y	femur_med_tibia_r.femur_med_r.force.Z	femur_med_tibia_r.femur_med_r.torque.X	femur_med_tibia_r.femur_med_r.torque.Y	femur_med_tibia_r.femur_med_r.torque.Z	femur_lat_tibia_r.tibia_upper_r.force.X	femur_lat_tibia_r.tibia_upper_r.force.Y	femur_lat_tibia_r.tibia_upper_r.force.Z	femur_lat_tibia_r.tibia_upper_r.torque.X	femur_lat_tibia_r.tibia_upper_r.torque.Y	femur_lat_tibia_r.tibia_upper_r.torque.Z	femur_lat_tibia_r.femur_lat_r.force.X	femur_lat_tibia_r.femur_lat_r.force.Y	femur_lat_tibia_r.femur_lat_r.force.Z	femur_lat_tibia_r.femur_lat_r.torque.X	femur_lat_tibia_r.femur_lat_r.torque.Y	femur_lat_tibia_r.femur_lat_r.torque.Z	aACL_R	pACL_R	aPCL_R	pPCL_R	aMCL_R	aLCL_R	aPCL_L	pPCL_L	aMCL_L	aLCL_L
      0.37382044	      0.00000000	    256.05264706	    255.44602335	    441.12734606	    138.27758037	    120.19378209	    212.38468107	     47.78798843	     78.01997294	     49.03583594	      0.00000000	      0.00000000	      2.76307435	     50.99597937	     -9.56042239	      5.21997485	     -0.02578839	      1.48581788	     -2.76307435	    -50.99597937	      9.56042239	     -1.74637766	      0.02558040	     -0.48301696	     -3.31599387	     20.97615968	     -3.40468921	      0.94473225	     -0.02138609	     -1.00501789	      3.31599387	    -20.97615968	      3.40468921	      0.28075727	      0.00368718	     -0.29758878	   2253.96722318	  -1408.58589912	    128.18891504	    -18.94320314	     51.57813150	    908.21116999	  -2253.96722318	   1408.58589912	   -128.18891504	    -39.64156457	    -66.60301331	    -43.20416446	     95.71828828	    -90.01370705	    -31.67560924	     11.21136067	     -1.55052154	     38.22026892	    -95.71828828	     90.01370705	     31.67560924	      1.07745719	      2.00404667	     -2.37435592	      0.00000000	      0.00000000	      0.00000000	      0.00000000	      0.00000000	      0.00000000	      0.00000000	      0.00000000	      0.00000000	      0.00000000	      0.00000000	      0.00000000	      0.00000000	      0.00000000	      0.00000000	      0.00000000	      0.00000000	      0.00000000	      0.00000000	      0.00000000	      0.00000000	      0.00000000	      0.00000000	      0.00000000	    -50.78430965	     -0.98394086	     22.93117193	      0.00437523	      1.24056604	      0.06369169	     50.78430965	      0.98394086	    -22.93117193	      9.22227647	     -0.81981342	     20.38808173	   -188.36168920	      1.23328344	    -57.45369816	     -0.02563181	     -7.37915779	     -0.06583520	    188.36168920	     -1.23328344	     57.45369816	    -23.08545012	      4.74901433	     75.77895480	      0.00000000	      0.00000000	   1330.99589940	    634.80654480	      0.00000000	      0.00000000	      0.00000000	      0.00000000	      0.00000001	      0.00000000
      0.37414389	      0.00000000	    256.17052586	    255.77952949	    441.33476271	    138.29419170	    120.22420749	    212.89136807	     47.82204052	     78.07037556	     49.08032552	      0.00000000	      0.00000000	      2.76307435	     50.99597937	     -9.56042239	      5.21997485	     -0.02578839	      1.48581788	     -2.76307435	    -50.99597937	      9.56042239	     -1.74637766	      0.02558040	     -0.48301696	     -3.31599387	     20.97615968	     -3.40468921	      0.94473225	     -0.02138609	     -1.00501789	      3.31599387	    -20.97615968	      3.40468921	      0.28075727	      0.00368718	     -0.29758878	   2249.05384508	  -1410.25527409	    130.92979956	    -20.00443640	     51.47226011	    906.21212125	  -2249.05384508	   1410.25527409	   -130.92979956	    -39.69131434	    -66.54891156	    -43.17688496	     93.15314689	    -88.65892964	    -31.31606272	     11.08977073	     -1.51056774	     37.20036945	    -93.15314689	     88.65892964	     31.31606272	      1.06218278	      1.96658230	     -2.34404165	      0.00000000	      0.00000000	      0.00000000	      0.00000000	      0.00000000	      0.00000000	      0.00000000	      0.00000000	      0.00000000	      0.00000000	      0.00000000	      0.00000000	      0.00000000	      0.00000000	      0.00000000	      0.00000000	      0.00000000	      0.00000000	      0.00000000	      0.00000000	      0.00000000	      0.00000000	      0.00000000	      0.00000000	    -50.23080235	     -0.90196112	     22.78412921	      0.00568438	      1.23050757	      0.06199346	     50.23080235	      0.90196112	    -22.78412921	      9.16199179	     -0.81116618	     20.16603260	   -188.04647188	      1.45224762	    -57.40935375	     -0.03404493	     -7.36854590	     -0.06649028	    188.04647188	     -1.45224762	     57.40935375	    -23.06172735	      4.74154412	     75.65109717	      0.00000000	      0.00000000	   1331.27301080	    635.06871267	      0.00000000	      0.00000000	      0.00000000	      0.00000000	      0.00000001	      0.00000000
      0.37506758	      0.00000000	    256.50599060	    256.72757461	    441.92508049	    138.33924465	    120.30730672	    213.79150289	     47.92128813	     78.21657910	     49.20904795	      0.00000000	      0.00000000	      2.76307435	     50.99597937	     -9.56042239	      5.21997485	     -0.02578839	      1.48581788	     -2.76307435	    -50.99597937	      9.56042239	     -1.74637766	      0.02558040	     -0.48301696	     -3.31599387	     20.97615968	     -3.40468921	      0.94473225	     -0.02138609	     -1.00501789	      3.31599387	    -20.97615968	      3.40468921	      0.28075727	      0.00368718	     -0.29758878	   2185.54072890	  -1407.13211250	    111.64065673	    -12.39876614	     50.02232896	    880.82822958	  -2185.54072890	   1407.13211250	   -111.64065673	    -39.52349643	    -64.20246997	    -43.09679250	     88.14189320	    -83.21743063	    -29.66754945	     10.51901772	     -1.42372288	     35.18949004	    -88.14189320	     83.21743063	     29.66754945	      0.99971061	      1.85695638	     -2.18272134	      0.00000000	      0.00000000	      0.00000000	      0.00000000	      0.00000000	      0.00000000	      0.00000000	      0.00000000	      0.00000000	      0.00000000	      0.00000000	      0.00000000	      0.00000000	      0.00000000	      0.00000000	      0.00000000	      0.00000000	      0.00000000	      0.00000000	      0.00000000	      0.00000000	      0.00000000	      0.00000000	      0.00000000	    -48.76977606	     -0.56788519	     22.22409288	      0.00974670	      1.19733022	      0.05305084	     48.76977606	      0.56788519	    -22.22409288	      8.93260980	     -0.78675313	     19.58104119	   -187.11881943	      2.11976766	    -57.10205511	     -0.05888303	     -7.32984343	     -0.07027707	    187.11881943	     -2.11976766	     57.10205511	    -22.92068864	      4.71728317	     75.27549151	      0.00000000	      0.00000000	   1332.04838565	    635.80097152	      0.00000000	      0.00000000	      0.00000000	      0.00000000	      0.00000001	      0.00000000
      0.37536682	      0.00000000	    256.61387020	    257.03353018	    442.11555176	    138.35287805	    120.33279354	    213.96842267	     47.95405209	     78.26460489	     49.25135433	      0.00000000	      0.00000000	      2.76307435	     50.99597937	     -9.56042239	      5.21997485	     -0.02578839	      1.48581788	     -2.76307435	    -50.99597937	      9.56042239	     -1.74637766	      0.02558040	     -0.48301696	     -3.31599387	     20.97615968	     -3.40468921	      0.94473225	     -0.02138609	     -1.00501789	      3.31599387	    -20.97615968	      3.40468921	      0.28075727	      0.00368718	     -0.29758878	   2180.29608909	  -1408.20206512	    116.49024049	    -14.30841332	     49.93429097	    878.70254845	  -2180.29608909	   1408.20206512	   -116.49024049	    -39.56987481	    -64.22693964	    -43.06444598	     86.72906895	    -81.61686889	    -29.24571302	     10.37589483	     -1.39918435	     34.62228840	    -86.72906895	     81.61686889	     29.24571302	      0.98196372	      1.82727293	     -2.13488599	      0.00000000	      0.00000000	      0.00000000	      0.00000000	      0.00000000	      0.00000000	      0.00000000	      0.00000000	      0.00000000	      0.00000000	      0.00000000	      0.00000000	      0.00000000	      0.00000000	      0.00000000	      0.00000000	      0.00000000	      0.00000000	      0.00000000	      0.00000000	      0.00000000	      0.00000000	      0.00000000	      0.00000000	    -48.29343836	     -0.52074140	     22.05026507	      0.01068331	      1.18686787	      0.05251807	     48.29343836	      0.52074140	    -22.05026507	      8.86202443	     -0.77889647	     19.38969775	   -186.79491755	      2.31574488	    -56.99212938	     -0.06641558	     -7.31623834	     -0.07072596	    186.79491755	     -2.31574488	     56.99212938	    -22.87122622	      4.70878445	     75.14419236	      0.00000000	      0.00000000	   1332.29468660	    636.03336590	      0.00000000	      0.00000000	      0.00000000	      0.00000000	      0.00000001	      0.00000000
      0.37538178	      0.00000000	    256.61924948	    257.04881560	    442.12506519	    138.35354549	    120.33404710	    213.97638039	     47.95569836	     78.26701494	     49.25347830	      0.00000000	      0.00000000	      2.76307435	     50.99597937	     -9.56042239	      5.21997485	     -0.02578839	      1.48581788	     -2.76307435	    -50.99597937	      9.56042239	     -1.74637766	      0.02558040	     -0.48301696	     -3.31599387	     20.97615968	     -3.40468921	      0.94473225	     -0.02138609	     -1.00501789	      3.31599387	    -20.97615968	      3.40468921	      0.28075727	      0.00368718	     -0.29758878	   2178.66997922	  -1409.12468585	    116.38394485	    -14.25067818	     49.90351688	    878.06119246	  -2178.66997922	   1409.12468585	   -116.38394485	    -39.58944657	    -64.18473426	    -43.10197499	     86.66341609	    -81.53399875	    -29.22048693	     10.36715489	     -1.39800529	     34.59587359	    -86.66341609	     81.53399875	     29.22048693	      0.98101060	      1.82568998	     -2.13235074	      0.00000000	      0.00000000	      0.00000000	      0.00000000	      0.00000000	      0.00000000	      0.00000000	      0.00000000	      0.00000000	      0.00000000	      0.00000000	      0.00000000	      0.00000000	      0.00000000	      0.00000000	      0.00000000	      0.00000000	      0.00000000	      0.00000000	      0.00000000	      0.00000000	      0.00000000	      0.00000000	      0.00000000	    -48.26975381	     -0.51921555	     22.04131739	      0.01072360	      1.18633532	      0.05252442	     48.26975381	      0.51921555	    -22.04131739	      8.85840255	     -0.77850247	     19.38017469	   -186.77845748	      2.32391067	    -56.98755466	     -0.06674936	     -7.31559034	     -0.07067958	    186.77845748	     -2.32391067	     56.98755466	    -22.86915836	      4.70836606	     75.13749961	      0.00000000	      0.00000000	   1332.30693742	    636.04491789	      0.00000000	      0.00000000	      0.00000000	      0.00000000	      0.00000001	      0.00000000
